<?xml version="1.0" encoding="UTF-8"?>
<svg width="48px" height="48px" viewBox="0 0 48 48" version="1.1" xmlns="http://www.w3.org/2000/svg" xmlns:xlink="http://www.w3.org/1999/xlink">
    <!-- Generator: Sketch 55.2 (78181) - https://sketchapp.com -->
    <title>机票-在线值机</title>
    <desc>Created with Sketch.</desc>
    <g id="机票" stroke="none" stroke-width="1" fill="none" fill-rule="evenodd">
        <g id="机票查询" transform="translate(-101.000000, -1249.000000)">
            <g id="栏/标签/机票" transform="translate(0.000000, 1236.000000)">
                <g id="编组" transform="translate(0.000000, 1.000000)">
                    <g id="icon/标签/机票/航班动态" transform="translate(101.000000, 12.000000)">
                        <g id="编组">
                            <rect id="矩形" x="0" y="0" width="48" height="48"></rect>
                            <path d="M14,19 L14,29 L34,29 L34,19 L42,19 L42,33 C42,35.209139 40.209139,37 38,37 L10,37 C7.790861,37 6,35.209139 6,33 L6,19 L14,19 Z" id="形状结合" stroke="#00000A" stroke-width="3" stroke-linejoin="round"></path>
                            <rect id="矩形" fill="#00000A" x="13" y="37" width="3" height="7" rx="1.5"></rect>
                            <rect id="矩形" fill="#00000A" x="33" y="37" width="3" height="7" rx="1.5"></rect>
                            <path d="M10,18 L10,10 C10,7.790861 11.790861,6 14,6 L34,6 C36.209139,6 38,7.790861 38,10 L38,18" id="路径" stroke="#00000A" stroke-width="3" stroke-linejoin="round"></path>
                        </g>
                    </g>
                </g>
            </g>
        </g>
    </g>
</svg>